# xmcd
#
# Track frame offsets: 
#        150
#        19314
#        36145
#        53918
#        71891
#        89815
#        108875
#        126872
#        140683
#        155533
#        174629
#
# Disc length: 2535 seconds
#
# Revision: 0
# Processed by: cddbd v1.5.2PL0 Copyright (c) Steve Scherf et al.
# Submitted via: ExactAudioCopy v0.99pb4
#
DISCID=a109e50b
DTITLE=Doc Span - Something for the pain...
DYEAR=2006
DGENRE=Blues
TTITLE0=No Time
TTITLE1=Creepin'
TTITLE2=That Place
TTITLE3=It's Alright
TTITLE4=Crocodile
TTITLE5=Bullets
TTITLE6=Thunderstones
TTITLE7=Another Good Man
TTITLE8=Take A Bite
TTITLE9=Each Step Of The Way
TTITLE10=Swampthing
EXTD=
EXTT0=
EXTT1=
EXTT2=
EXTT3=
EXTT4=
EXTT5=
EXTT6=
EXTT7=
EXTT8=
EXTT9=
EXTT10=
PLAYORDER=
